<svg xmlns="http://www.w3.org/2000/svg" width="301.733" height="46.094" viewBox="0 0 301.733 46.094">
  <path id="Path_31" data-name="Path 31" d="M-117.627-30.762v1.66q0,1.025-.4,1.294t-2.954,1.44a34.119,34.119,0,0,0-4.9,2.759,10.107,10.107,0,0,1,1.648-1.953q.745-.635,2.014-1.587a8.471,8.471,0,0,0-3.052-.439,20.287,20.287,0,0,0-6.531,1.2,25.051,25.051,0,0,0-5.957,2.856q-2.454,1.66-2.454,2.783,0,.586.745.964a7.786,7.786,0,0,0,2.393.586q1.648.208,4.114.281t6.079.073a17.674,17.674,0,0,1,3.394.2.876.876,0,0,1,.757.9,3.557,3.557,0,0,1-.891,2.063,3.522,3.522,0,0,1-2.356,1.379q-2.271.366-3.613.623a25.759,25.759,0,0,0-3.186.867,29.543,29.543,0,0,0-4.089,1.758A23.007,23.007,0,0,0-142.09-7.5q-1.88,1.807-1.88,3.2a2.059,2.059,0,0,0,1.343,1.868,8.843,8.843,0,0,0,3.857.671q8.667,0,17.651-7.788a13.118,13.118,0,0,1-.525,4.211,8.284,8.284,0,0,1-2.332,3.479A15.463,15.463,0,0,1-128.259.806a32.468,32.468,0,0,1-6.152,2.026,28.343,28.343,0,0,1-6.262.757,9.269,9.269,0,0,1-5.615-1.624,5.082,5.082,0,0,1-2.222-4.309,7.908,7.908,0,0,1,1.074-3.882,12.82,12.82,0,0,1,3.3-3.7,24.043,24.043,0,0,1,5.627-3.21,38.179,38.179,0,0,1,7.849-2.271q.635-.122.635-.391,0-.293-.745-.354t-2.734-.085q-1.99-.024-3.5-.171a17.618,17.618,0,0,1-3.2-.635,4.923,4.923,0,0,1-2.673-1.88,5.077,5.077,0,0,1-.94-2.979,7.258,7.258,0,0,1,1.514-4.224,14.542,14.542,0,0,1,4.272-3.833A24.6,24.6,0,0,1-131.36-32.7a33.471,33.471,0,0,1,8.582-1.038,15.546,15.546,0,0,1,3.748.305q1.062.305,1.233.806A6.733,6.733,0,0,1-117.627-30.762ZM-75.732,2.808A2.055,2.055,0,0,1-76.6,2.49,19.677,19.677,0,0,1-78.259,1.4q-1.086-.769-2.454-1.7L-93.921-9.155-97.827-4A2.223,2.223,0,0,1-98-3.015a4.593,4.593,0,0,1-.732.916A23.046,23.046,0,0,1-101.013.024a2.88,2.88,0,0,1-1.7.732.821.821,0,0,1-.635-.305,1.087,1.087,0,0,1-.269-.745,3.053,3.053,0,0,1,.684-1.562l7.153-8.887a3.785,3.785,0,0,1-.635-2.051,2.862,2.862,0,0,1,.6-1.831,5.02,5.02,0,0,1,1.379-1.221q.781-.464,4.321-2.344,5.029-6.665,5.029-7.471,0-.537-.635-.537a12.307,12.307,0,0,0-2.917.781q-2.258.781-5.933,2.4t-8.7,4.163a1.714,1.714,0,0,1-.94.183,1.329,1.329,0,0,1-.891-.415,1.4,1.4,0,0,1-.366-1.013,1.567,1.567,0,0,1,.085-.464q.085-.269.281-.842t.342-1.013q.049-.146.232-1.05a5.28,5.28,0,0,1,.623-1.648,6.977,6.977,0,0,1,1.5-1.648,15.789,15.789,0,0,1,3.04-1.9,2.135,2.135,0,0,1,.684-.281q.317-.061.317.183a3.123,3.123,0,0,1-.72.6,7.609,7.609,0,0,0-1.575,1.721q7.129-2.49,10.51-3.5a20.028,20.028,0,0,1,5.432-1.013q1.123,0,1.88,1.526a6.316,6.316,0,0,1,.757,1.99,2.97,2.97,0,0,1-.537,1.538l-3.906,5.859q4.639-2.295,7.214-3.65t5.6-2.954q3.027-1.6,3.833-2a3.321,3.321,0,0,1,1.05-.4q.562,0,.562.513a5.265,5.265,0,0,1-.842,1.6A14.5,14.5,0,0,1-70.972-24.6a2.792,2.792,0,0,1-1.709,1.038,1.3,1.3,0,0,1-.415-.085q-.244-.085-.464-.159-3.3,1.709-8.069,4.053t-7.532,3.662l-2.1,3.149,12.378,8.4A24.894,24.894,0,0,1-76.4-2.71a4.645,4.645,0,0,1,1.147,1.489A4.765,4.765,0,0,1-74.878.806Q-74.878,2.808-75.732,2.808ZM-70-12.061a29.661,29.661,0,0,1,7.2-5A14.081,14.081,0,0,1-57.4-18.7a1.347,1.347,0,0,1,.952.427,3.248,3.248,0,0,1,.7.989,2.3,2.3,0,0,1,.256.83.7.7,0,0,1-.342.647,6.81,6.81,0,0,1-1.2.5l.439,1q.269.61.415.989a1.893,1.893,0,0,1,.146.671,5.14,5.14,0,0,1-1.184,2.185q-1.184,1.6-1.66,2.356a3.418,3.418,0,0,0-.476,1.855q0,1.807,1.66,1.807,1.709,0,5.347-3.2v1.489Q-58.521.708-61.182.708A1.49,1.49,0,0,1-62.537.085a3.423,3.423,0,0,1-.4-1.843,17.391,17.391,0,0,1,1.392-5.591q-3.564,3.955-5.3,5.627T-69.7-.049q-.537,0-1.343-.928a8.946,8.946,0,0,1-1.428-2.4A7.813,7.813,0,0,1-73.1-6.445a7.092,7.092,0,0,1,.22-1.917,4.645,4.645,0,0,1,.854-1.575A21.755,21.755,0,0,1-70-12.061ZM-58.3-14.746a52.849,52.849,0,0,0-9.045,4.932q-2.7,2.026-2.7,4.175a2.7,2.7,0,0,0,.269,1.282.814.814,0,0,0,.732.5,2.669,2.669,0,0,0,.952-.342A19.189,19.189,0,0,0-63.4-8.142Q-61.279-10.571-58.3-14.746Zm14.307-5.615h1.05A13.577,13.577,0,0,1-40.6-23.645a3.439,3.439,0,0,1,2.393-.964q1.343,0,1.343.61a4.879,4.879,0,0,1-1.05,1.587A21.109,21.109,0,0,0-39.5-20.239q.83.1,1.477.171t1.013.122a38.419,38.419,0,0,1-3.491,5.3q-.684-.049-1.147-.085l-.94-.073q-.476-.037-1.16-.085-1.318,2.124-2.209,3.8a21.219,21.219,0,0,0-1.367,3.064A8.153,8.153,0,0,0-47.8-5.4q0,1.685,1.343,1.685A4.863,4.863,0,0,0-44.031-4.7q1.5-.989,4.016-3.04V-6.1Q-46.606,1.05-49.756,1.05A2.141,2.141,0,0,1-51.526.2,3.45,3.45,0,0,1-52.2-2a7.568,7.568,0,0,1,.378-2.148q.378-1.245,1.355-3.76-.342.293-.647.574t-.562.513q-.256.232-.549.488t-.586.525V-7.5a37.831,37.831,0,0,0,6.2-7.544q-.366-.024-.684-.037t-.757-.012a8.713,8.713,0,0,0-2.148.2q-.293.073-.549.159a1.37,1.37,0,0,1-.354.085q-.1,0-.1-.146a5.377,5.377,0,0,1,1-2.417,8.909,8.909,0,0,1,1.526-2.026,3.766,3.766,0,0,1,1.758-.891A14.13,14.13,0,0,1-43.994-20.361Zm3.638,14.819V-7.349A19.838,19.838,0,0,0-37.6-11.3q-1.367-.2-1.367-1.1a3.587,3.587,0,0,1,.916-1.953A11.674,11.674,0,0,1-35.9-16.5a3.673,3.673,0,0,1,1.941-.952q.806,0,.806.659,0,.269-.146.342a.451.451,0,0,0-.2.415q0,.244.391.244a12.141,12.141,0,0,0,3.064-.5,11.81,11.81,0,0,1,2.527-.5q.562,0,.757,1.05.513,2.783.513,3.149a.91.91,0,0,1-.305.647,13.709,13.709,0,0,1-1.709,1.208q-1.4.9-2.6,1.746t-3.1,2.356a5.166,5.166,0,0,1,1.917,1.367,6.755,6.755,0,0,1,1.038,2.319l6.1-4.785V-6.1l-6.152,4.956a12.147,12.147,0,0,1-1.624,4.761,22.417,22.417,0,0,1-3.21,4.346,22.82,22.82,0,0,1-3.638,3.162,5.771,5.771,0,0,1-2.637,1.233,1.2,1.2,0,0,1-1.123-.525A2.982,2.982,0,0,1-43.6,10.3a6.228,6.228,0,0,1,.623-2.734,10.636,10.636,0,0,1,1.807-2.576A25.5,25.5,0,0,1-38.318,2.38q1.672-1.331,4.456-3.235a3.206,3.206,0,0,0-.9-2.161,8.173,8.173,0,0,0-1.941-.854q-1.306-.427-1.306-1.282,0-.952,9.155-7.3-1.465.293-3.442.647t-3.76.5Q-37.3-9.326-38.428-7.837A22.516,22.516,0,0,1-40.356-5.542Zm6.25,6.982A30.385,30.385,0,0,0-37.5,4.187,38.289,38.289,0,0,0-40.32,7.08,5.271,5.271,0,0,0-41.5,8.74q0,.562.488.562a4.358,4.358,0,0,0,2.271-.977,11.884,11.884,0,0,0,2.71-2.8A12.373,12.373,0,0,0-34.106,1.44ZM-2.417-.2A5.948,5.948,0,0,1-5.762-1.27,7.728,7.728,0,0,1-8.35-4.248,9.172,9.172,0,0,1-9.326-8.5a8.174,8.174,0,0,1,2.38-5.688A27.01,27.01,0,0,1,.073-19.238a16.129,16.129,0,0,1-.244-2.173A10.628,10.628,0,0,1,.867-26.05a11.958,11.958,0,0,1,2.7-3.7A12.877,12.877,0,0,1,7.08-32.092a8.778,8.778,0,0,1,3.54-.818,4.952,4.952,0,0,1,3.149.94,2.95,2.95,0,0,1,1.2,2.429A6.364,6.364,0,0,1,13.953-26a11.485,11.485,0,0,1-2.588,2.8A44.4,44.4,0,0,1,7.5-20.544Q5.2-19.116,4.712-18.75a32.283,32.283,0,0,0,2.368,6.3,27.416,27.416,0,0,0,3.442-2.673,29.549,29.549,0,0,0,2.1-2.185q.854-1,1.147-1,.22,0,.366.537a4.444,4.444,0,0,1,.146,1.172,7.369,7.369,0,0,1-.537,2.808,11.9,11.9,0,0,1-1.526,2.637A28.188,28.188,0,0,1,9.766-8.35l1.611,1.758a6.258,6.258,0,0,0,.537-.562,4.13,4.13,0,0,1,.488-.5.582.582,0,0,1,.366-.134.433.433,0,0,1,.378.2.758.758,0,0,1,.134.439A8.12,8.12,0,0,1,11.865-3.8Q10.449-1.44,9.521-1.44a1.447,1.447,0,0,1-.952-.4A8.35,8.35,0,0,1,7.446-3.137q-.659-.891-1.074-1.5a36.115,36.115,0,0,1-4.993,3.3A8.45,8.45,0,0,1-2.417-.2ZM4.175-23.34v1a20.866,20.866,0,0,0,5.457-4.175q1.941-2.2,1.941-3.491a.971.971,0,0,0-1.1-1.1,4.607,4.607,0,0,0-2.539,1.184,11.045,11.045,0,0,0-2.649,2.979A6.789,6.789,0,0,0,4.175-23.34Zm-3.3,7.3a21.5,21.5,0,0,0-3.21,2.686,15.713,15.713,0,0,0-2.222,2.8A4.668,4.668,0,0,0-5.371-8.3q0,1.807,1.636,1.807A9.682,9.682,0,0,0-.488-7.288a17.694,17.694,0,0,0,4.1-2.307Q2.539-12.085.879-16.04ZM58.032-7.788V-6.2A86.065,86.065,0,0,1,50.5,1.331,31.629,31.629,0,0,1,43.8,5.9a14.371,14.371,0,0,1-6.323,1.6,9.2,9.2,0,0,1-4.529-1.05A6.733,6.733,0,0,1,30.09,3.381a10.954,10.954,0,0,1-.964-4.773,16.729,16.729,0,0,1,.7-4.6A25.292,25.292,0,0,1,31.836-10.9a43.52,43.52,0,0,1,3.235-5.115q1.917-2.637,4.5-5.542a51.543,51.543,0,0,1,5.3-5.188,35.834,35.834,0,0,1,4.736-3.43,21.336,21.336,0,0,1,3.943-1.855,9.888,9.888,0,0,1,3.015-.61,3.581,3.581,0,0,1,2.075.586,3.728,3.728,0,0,1,1.318,1.709,6.736,6.736,0,0,1,.464,2.588,12.868,12.868,0,0,1-1.88,6.14,36.443,36.443,0,0,1-4.687,6.531A41.69,41.69,0,0,1,48.5-9.949q-2.551,1.99-3.674,1.99a2.033,2.033,0,0,1-1.4-.6,1.807,1.807,0,0,1-.647-1.355,6.058,6.058,0,0,1,1.477-3.369,28.083,28.083,0,0,1,3.223-3.625q1.746-1.648,2.087-1.648.171,0,.171.146a2.154,2.154,0,0,1-.256.757,2.515,2.515,0,0,0-.256.659q0,.2.146.2.415,0,2.393-2.222a34.824,34.824,0,0,0,3.625-4.9A9.04,9.04,0,0,0,57.031-28.3a1.694,1.694,0,0,0-.305-1.086,1.106,1.106,0,0,0-.916-.378q-1.709,0-5.188,2.771a52.574,52.574,0,0,0-7.129,7.056,50.105,50.105,0,0,0-6.091,8.85,17.541,17.541,0,0,0-2.441,8.032,8.227,8.227,0,0,0,.6,3.345,4.6,4.6,0,0,0,1.758,2.075,5.128,5.128,0,0,0,2.8.732q3.54,0,8.032-2.759A56.437,56.437,0,0,0,58.032-7.788Zm15.479.049V-6.1A12.911,12.911,0,0,1,70.923-4.15a5.741,5.741,0,0,1-2.808.391Q64.941,0,62.524,0a3.879,3.879,0,0,1-2.49-.9A6.258,6.258,0,0,1,58.24-3.369a8.757,8.757,0,0,1-.671-3.491,7.367,7.367,0,0,1,1.038-3.467,15.532,15.532,0,0,1,2.686-3.552,15.177,15.177,0,0,1,3.528-2.661,7.429,7.429,0,0,1,3.491-1.013,3.849,3.849,0,0,1,1.807.354,1.088,1.088,0,0,1,.659.989,1.82,1.82,0,0,1-.562,1.123,2.076,2.076,0,0,1,1.27.647,2.868,2.868,0,0,1,.342,1.648,10.447,10.447,0,0,1-.549,2.954,14.748,14.748,0,0,1-1.5,3.345l.439.439h.366a1.768,1.768,0,0,0,.818-.208,5.447,5.447,0,0,0,.72-.439Q72.437-6.934,73.511-7.739ZM68.481-14.16q-2.026,1.221-3.467,2.209a16.745,16.745,0,0,0-2.441,2A5.39,5.39,0,0,0,61.23-7.91q-.61,2.734-.61,2.954,0,1.611,2.246,1.611,1.05,0,3.516-1.807a6.455,6.455,0,0,1-.415-2.2,8.466,8.466,0,0,1,.635-3.137A25.938,25.938,0,0,1,68.481-14.16Zm44.873-4.346.757.757a21.705,21.705,0,0,1-3.5,3.662,4.55,4.55,0,0,1-2.209,1.147q-.586,0-.586-1.05,0-2.612,3.442-8.057,2.905-4.712,2.905-5.249,0-.464-.391-.464-.684,0-3.442,3.076a109.59,109.59,0,0,0-6.812,8.691q-4.59,6.25-6.3,8.936a40.43,40.43,0,0,1,5.334.818q2.087.5,6.055,1.624A38.94,38.94,0,0,0,114.453-3.3Q112.158-.684,111.292.256a4.8,4.8,0,0,1-1.331,1.135,3.851,3.851,0,0,1-2.173.037q-1.44-.281-4.565-1.086T97.375-1a25.848,25.848,0,0,0-4.968-.537,7.209,7.209,0,0,0-2.185.293q-.916.293-2.539.964A7.244,7.244,0,0,1,85.4.391q-.952,0-.952-.781a2.088,2.088,0,0,1,.317-1q.806-1.294,1.563-2.466a7.24,7.24,0,0,1,1.611-1.831,6.35,6.35,0,0,1,2.466-1.025A20.728,20.728,0,0,1,94.653-7.1q3.979-6.1,7.422-10.828t6.262-7.971a38.452,38.452,0,0,1,4.944-4.919A6.275,6.275,0,0,1,116.65-32.5a1.848,1.848,0,0,1,1.367.488,1.848,1.848,0,0,1,.488,1.367Q118.506-27.71,113.354-18.506Zm12.427-1.855h1.05a13.577,13.577,0,0,1,2.344-3.284,3.439,3.439,0,0,1,2.393-.964q1.343,0,1.343.61a4.879,4.879,0,0,1-1.05,1.587,21.109,21.109,0,0,0-1.587,2.173q.83.1,1.477.171t1.013.122a38.419,38.419,0,0,1-3.491,5.3q-.684-.049-1.147-.085l-.94-.073q-.476-.037-1.16-.085-1.318,2.124-2.209,3.8a21.219,21.219,0,0,0-1.367,3.064,8.153,8.153,0,0,0-.476,2.637q0,1.685,1.343,1.685a4.863,4.863,0,0,0,2.429-.989q1.5-.989,4.016-3.04V-6.1Q123.169,1.05,120.02,1.05A2.141,2.141,0,0,1,118.25.2a3.45,3.45,0,0,1-.671-2.2,7.568,7.568,0,0,1,.378-2.148q.378-1.245,1.355-3.76-.342.293-.647.574t-.562.513q-.256.232-.549.488t-.586.525V-7.5a37.831,37.831,0,0,0,6.2-7.544q-.366-.024-.684-.037t-.757-.012a8.713,8.713,0,0,0-2.148.2q-.293.073-.549.159a1.371,1.371,0,0,1-.354.085q-.1,0-.1-.146a5.377,5.377,0,0,1,1-2.417,8.909,8.909,0,0,1,1.526-2.026,3.766,3.766,0,0,1,1.758-.891A14.13,14.13,0,0,1,125.781-20.361Zm15.088,12.72q-2.148,2.441-3.845,4.15A33.731,33.731,0,0,1,134.265-.94a3.335,3.335,0,0,1-1.453.842q-.635,0-1.428-1.025a9.34,9.34,0,0,1-1.355-2.612,9.6,9.6,0,0,1-.562-3.223,7.03,7.03,0,0,1,2.295-4.773,21.008,21.008,0,0,1,5.225-3.992,10.643,10.643,0,0,1,4.395-1.587,3.108,3.108,0,0,1,2.344,1.514q1.88-3.931,3.577-6.982a38.6,38.6,0,0,1,2.844-4.541q1.147-1.489,1.636-1.489a1.3,1.3,0,0,1,.989.525,1.768,1.768,0,0,1,.452,1.184q0,1.27-1.855,4.358t-3.662,6.018a52.24,52.24,0,0,0-3.1,5.774,12.8,12.8,0,0,0-1.294,5.261q0,2.2,1.416,2.2a3.942,3.942,0,0,0,2.148-.964,45.421,45.421,0,0,0,3.687-3.235v1.782Q145.288.9,142.432.9a1.748,1.748,0,0,1-1.648-.879,5.4,5.4,0,0,1-.5-2.612A24,24,0,0,1,140.869-7.642Zm1.807-5.957a31.892,31.892,0,0,0-5.1,2.356,21,21,0,0,0-3.54,2.234,4.182,4.182,0,0,0-.952,1.831,7.592,7.592,0,0,0-.415,2.026.977.977,0,0,0,.244.684.791.791,0,0,0,.61.269,1.461,1.461,0,0,0,.781-.293,15.331,15.331,0,0,0,1.4-1.147q.964-.854,1.257-1.1.415-.366,1.843-1.575t2.087-1.892a7.172,7.172,0,0,0,1.123-1.526A6.279,6.279,0,0,0,142.676-13.6Z" transform="translate(148.511 33.74)" fill="#fff"/>
</svg>
